#!OML:ASF F:\VICON\USERDATA\INSTALL\rory3\rory3.ASF
:FULLY-SPECIFIED
:DEGREES
536
root -3.70021 15.3687 22.9513 569.786 -15.5247 183.101
lowerback 2.67709 4.41539 -7.23497
upperback -4.33226 4.56167 -7.46182
thorax -6.04545 2.15554 -4.15265
lowerneck -10.6662 12.03 1.62358
upperneck -6.38062 15.3519 -13.5898
head 1.08423 7.32796 -3.93484
rclavicle -2.62396e-014 1.06549e-013
rhumerus 125.39 -34.9839 238.377
rradius 10.0671
rwrist 77.8221
rhand -16.1542 10.9019
rfingers 7.12502
rthumb 10.0513 -18.838
lclavicle -2.62396e-014 1.06549e-013
lhumerus 6.40482 42.4553 14.1025
lradius 22.266
lwrist -25.845
lhand -8.26109 27.4086
lfingers 7.12502
lthumb 17.6576 56.6269
rfemur 2.12331 7.81073 32.1531
rtibia 1.27222e-014
rfoot -43.1357 -46.2298
rtoes -0.282508
lfemur -86.6777 21.0427 -46.5189
ltibia 57.159
lfoot -26.0168 27.3185
ltoes 19.6692
537
root -3.71054 15.368 22.9442 569.903 -15.6066 182.97
lowerback 2.74362 4.5649 -7.27349
upperback -4.36468 4.74315 -7.52704
thorax -6.11482 2.2451 -4.22577
lowerneck -9.74057 11.9515 2.0918
upperneck -7.03441 15.1148 -14.1103
head 0.785573 7.25482 -4.28613
rclavicle 2.8625e-014 -2.06736e-014
rhumerus 125.947 -35.0362 236.945
rradius 9.83863
rwrist 79.3992
rhand -16.1179 11.028
rfingers 7.12502
rthumb 10.0864 -18.7102
lclavicle 2.8625e-014 -2.06736e-014
lhumerus 7.39802 43.1266 16.1143
lradius 21.8858
lwrist -27.0874
lhand -7.8924 26.8737
lfingers 7.12502
lthumb 18.0124 56.0597
rfemur 2.05096 7.69027 32.0307
rtibia -3.18055e-015
rfoot -43.0258 -46.4805
rtoes -0.692938
lfemur -86.6243 20.8516 -46.5862
ltibia 57.1449
lfoot -26.2163 27.2374
ltoes 20.1575
538
root -3.71933 15.3647 22.9394 570.05 -15.7761 182.801
lowerback 2.95859 4.68287 -7.26666
upperback -4.51888 4.83944 -7.65424
thorax -6.39316 2.28566 -4.4067
lowerneck -8.92186 11.8554 2.51912
upperneck -7.47222 14.8994 -14.3926
head 0.548212 7.18811 -4.53842
rclavicle -7.15625e-015 -1.59028e-014
rhumerus 126.115 -35.2282 235.46
rradius 9.67811
rwrist 80.643
rhand -15.8623 11.1716
rfingers 7.12502
rthumb 10.333 -18.5545
lclavicle -7.15625e-015 -1.59028e-014
lhumerus 7.91005 42.0913 17.5381
lradius 21.8836
lwrist -26.7707
lhand -7.5479 27.273
lfingers 7.12502
lthumb 18.3438 56.428
rfemur 1.94624 7.48005 31.9158
rtibia 9.54166e-015
rfoot -43.2789 -46.3798
rtoes -0.63118
lfemur -86.5824 20.5711 -46.7118
ltibia 57.0831
lfoot -26.0971 27.4369
ltoes 19.7136
539
root -3.72822 15.3635 22.9342 570.063 -16.0434 182.548
lowerback 3.30498 4.70323 -7.33496
upperback -4.59235 4.80013 -7.70903
thorax -6.67649 2.2658 -4.46437
lowerneck -8.85846 11.9304 2.18818
upperneck -7.51206 15.034 -13.998
head 0.468228 7.27405 -4.3421
rclavicle -7.95139e-014 -9.54166e-015
rhumerus 125.865 -35.2107 234.006
rradius 9.84773
rwrist 81.8716
rhand -15.6636 11.281
rfingers 7.12502
rthumb 10.5247 -18.4355
lclavicle -7.95139e-014 -9.54166e-015
lhumerus 8.21824 41.5878 18.9531
lradius 21.8397
lwrist -26.7963
lhand -7.21043 27.5191
lfingers 7.12502
lthumb 18.6684 56.6433
rfemur 2.03277 7.10287 31.8011
rtibia 3.18055e-015
rfoot -43.8734 -45.916
rtoes 0.0310411
lfemur -86.3435 20.3197 -46.8486
ltibia 57.0198
lfoot -25.83 27.5159
ltoes 18.9571
540
root -3.73731 15.3567 22.9339 570.178 -16.3887 182.567
lowerback 3.31815 4.62797 -7.21713
upperback -4.57174 4.73402 -7.58016
thorax -6.66045 2.23923 -4.38386
lowerneck -9.42435 12.1313 1.65652
upperneck -7.1795 15.3997 -13.5152
head 0.608218 7.44038 -4.01516
rclavicle -4.53229e-014 1.06549e-013
rhumerus 125.488 -34.8079 232.591
rradius 10.1847
rwrist 83.276
rhand -15.8351 11.2931
rfingers 7.12502
rthumb 10.3592 -18.4317
lclavicle -4.53229e-014 1.06549e-013
lhumerus 8.49075 42.1731 20.6247
lradius 21.6177
lwrist -27.4017
lhand -7.06475 27.0986
lfingers 7.12502
lthumb 18.8085 56.2093
rfemur 1.90198 6.83499 31.9568
rtibia 3.18055e-015
rfoot -44.198 -45.706
rtoes 0.237899
lfemur -86.3298 19.9684 -46.6755
ltibia 56.9605
lfoot -25.7818 27.4208
ltoes 19.0015
541
root -3.74595 15.3527 22.9313 570.446 -16.5366 182.529
lowerback 3.19346 4.65906 -7.2624
upperback -4.58166 4.7991 -7.52008
thorax -6.60653 2.27869 -4.29066
lowerneck -9.57218 12.0602 1.71849
upperneck -6.75998 15.3629 -13.3699
head 0.759935 7.40654 -3.95492
rclavicle -3.18055e-014 4.6118e-014
rhumerus 125.389 -34.6662 231.229
rradius 10.1405
rwrist 84.4379
rhand -16.0921 11.1076
rfingers 7.12502
rthumb 10.1113 -18.6295
lclavicle -3.18055e-014 4.6118e-014
lhumerus 8.79498 42.0987 22.3222
lradius 21.4625
lwrist -27.3487
lhand -7.162 27.0925
lfingers 7.12502
lthumb 18.715 56.2122
rfemur 1.61486 6.74614 31.9422
rtibia 1.27222e-014
rfoot -43.9468 -45.8285
rtoes -0.289576
lfemur -86.5209 19.7388 -46.8055
ltibia 56.8805
lfoot -25.6118 27.3634
ltoes 18.9225
542
root -3.75923 15.3523 22.9245 570.589 -16.5584 182.375
lowerback 3.20945 4.74815 -7.41644
upperback -4.58371 4.90321 -7.53848
thorax -6.63059 2.33602 -4.23898
lowerneck -9.66938 12.0669 1.59097
upperneck -6.72202 15.3808 -13.5117
head 0.793039 7.40863 -3.97283
rclavicle 1.09729e-013 -1.31993e-013
rhumerus 124.888 -35.2159 230.636
rradius 10.0341
rwrist 84.4882
rhand -16.1862 10.8411
rfingers 7.12502
rthumb 10.0205 -18.9004
lclavicle 1.09729e-013 -1.31993e-013
lhumerus 9.04079 41.763 23.9814
lradius 21.4065
lwrist -27.1541
lhand -7.25482 27.5209
lfingers 7.12502
lthumb 18.6257 56.6492
rfemur 1.53594 6.66774 31.7523
rtibia -1.59028e-014
rfoot -44.1194 -45.6265
rtoes 0.229169
lfemur -86.4984 19.6457 -47.0645
ltibia 56.802
lfoot -25.6381 27.2357
ltoes 19.1827
543
root -3.77246 15.3548 22.9171 570.726 -16.6202 182.193
lowerback 3.22983 4.83167 -7.54053
upperback -4.55805 5.00018 -7.59109
thorax -6.62209 2.38626 -4.23748
lowerneck -9.767 12.1043 1.48916
upperneck -6.77104 15.4301 -13.5805
head 0.794811 7.43019 -3.97117
rclavicle 1.43125e-014 -6.36111e-014
rhumerus 125.215 -35.135 228.744
rradius 9.87001
rwrist 85.8099
rhand -16.1375 10.7027
rfingers 7.12502
rthumb 10.0675 -19.0364
lclavicle 1.43125e-014 -6.36111e-014
lhumerus 9.18392 40.9446 25.4191
lradius 21.364
lwrist -26.4894
lhand -7.37535 28.0552
lfingers 7.12502
lthumb 18.5098 57.1946
rfemur 1.47235 6.53648 31.5594
rtibia 2.8625e-014
rfoot -44.044 -45.639
rtoes 0.0729698
lfemur -86.4774 19.5735 -47.3953
ltibia 56.7346
lfoot -25.5588 27.1974
ltoes 18.8799
544
root -3.78655 15.3517 22.9081 570.787 -16.8667 182.175
lowerback 3.28449 4.83161 -7.41363
upperback -4.50756 5.02033 -7.55982
thorax -6.58796 2.39566 -4.27585
lowerneck -10.0979 12.1242 1.11259
upperneck -6.77931 15.4864 -13.3509
head 0.795137 7.45272 -3.80818
rclavicle 1.90833e-014 -1.74931e-013
rhumerus 125.534 -34.9116 226.876
rradius 9.45105
rwrist 86.957
rhand -16.5433 10.7924
rfingers 7.12502
rthumb 9.67597 -18.9654
lclavicle 1.90833e-014 -1.74931e-013
lhumerus 9.29989 40.6339 26.9103
lradius 21.2527
lwrist -26.3462
lhand -7.19094 27.9816
lfingers 7.12502
lthumb 18.6872 57.104
rfemur 1.4606 6.31444 31.613
rtibia -6.36111e-015
rfoot -44.4398 -45.2673
rtoes 0.907761
lfemur -86.492 19.5008 -47.5346
ltibia 56.7083
lfoot -25.4127 27.0689
ltoes 18.2849
545
root -3.80152 15.3477 22.8948 570.772 -17.2014 182.146
lowerback 3.45257 4.86025 -7.1997
upperback -4.53539 5.05793 -7.56554
thorax -6.6918 2.40826 -4.42068
lowerneck -10.2546 12.0526 0.757391
upperneck -6.83039 15.4118 -13.1224
head 0.744828 7.41888 -3.67213
rclavicle 1.35174e-014 -4.6118e-014
rhumerus 125.861 -35.0234 224.939
rradius 9.17141
rwrist 88.1435
rhand -16.8566 10.9594
rfingers 7.12502
rthumb 9.37371 -18.8122
lclavicle 1.35174e-014 -4.6118e-014
lhumerus 9.7589 40.7083 28.8207
lradius 21.031
lwrist -26.8052
lhand -7.01641 27.6089
lfingers 7.12502
lthumb 18.855 56.7151
rfemur 1.53372 5.99275 31.7184
rtibia -3.18055e-014
rfoot -44.5265 -45.1647
rtoes 0.704952
lfemur -86.3573 19.3843 -47.565
ltibia 56.6842
lfoot -25.3015 26.8386
ltoes 18.1718
546
root -3.81676 15.3499 22.8852 570.801 -17.4721 181.916
lowerback 3.80001 4.92066 -7.11809
upperback -4.66246 5.06705 -7.71015
thorax -7.01075 2.39994 -4.66703
lowerneck -9.05573 11.8262 2.15357
upperneck -6.70501 15.0379 -13.3486
head 0.702067 7.26332 -4.07395
rclavicle 1.51076e-014 -6.04305e-014
rhumerus 126.171 -35.4064 222.843
rradius 9.08508
rwrist 89.6898
rhand -16.7952 11.22
rfingers 7.12502
rthumb 9.43298 -18.5489
lclavicle 1.51076e-014 -6.04305e-014
lhumerus 10.314 40.7412 30.7788
lradius 20.7259
lwrist -27.5032
lhand -6.90764 27.524
lfingers 7.12502
lthumb 18.9596 56.6199
rfemur 1.59953 5.62841 31.5949
rtibia 6.36111e-015
rfoot -44.6207 -45.0694
rtoes 0.851376
lfemur -86.0623 19.1357 -47.6734
ltibia 56.611
lfoot -25.3088 26.7044
ltoes 18.3495
547
root -3.82999 15.355 22.8782 570.873 -17.5842 181.632
lowerback 4.03745 4.99482 -7.25746
upperback -4.76955 5.09257 -7.81834
thorax -7.27084 2.40973 -4.74501
lowerneck -9.10963 11.7568 2.25014
upperneck -6.26674 15.004 -13.121
head 0.839424 7.23747 -3.99749
rclavicle -1.51076e-014 -7.63333e-014
rhumerus 126.214 -35.6258 220.876
rradius 9.14001
rwrist 91.3148
rhand -16.3377 11.2331
rfingers 7.12502
rthumb 9.87435 -18.5153
lclavicle -1.51076e-014 -7.63333e-014
lhumerus 10.5553 40.5745 32.5928
lradius 20.5969
lwrist -27.8269
lhand -6.88352 27.3524
lfingers 7.12502
lthumb 18.9828 56.4461
rfemur 1.64202 5.38096 31.3508
rtibia 1.27222e-014
rfoot -44.9574 -44.8036
rtoes 1.37419
lfemur -85.8034 18.9321 -47.8718
ltibia 56.4966
lfoot -25.3356 26.6869
ltoes 18.2527
548
root -3.84337 15.3585 22.8718 571.001 -17.6166 181.424
lowerback 4.10561 5.0771 -7.38539
upperback -4.86855 5.15163 -7.92453
thorax -7.4224 2.43574 -4.81308
lowerneck -9.02092 11.6722 2.59788
upperneck -6.01638 14.9023 -13.1343
head 0.930826 7.18056 -4.06522
rclavicle -1.35174e-014 -1.43125e-014
rhumerus 126.238 -35.7368 218.901
rradius 9.17769
rwrist 92.9438
rhand -15.7637 11.0273
rfingers 7.12502
rthumb 10.4282 -18.694
lclavicle -1.35174e-014 -1.43125e-014
lhumerus 10.9611 41.2134 34.6237
lradius 20.3257
lwrist -28.8809
lhand -6.56599 27.0519
lfingers 7.12502
lthumb 19.2882 56.1153
rfemur 1.59366 5.25899 31.1322
rtibia -9.54166e-015
rfoot -44.9097 -44.9184
rtoes 0.952683
lfemur -85.6703 18.7949 -48.1022
ltibia 56.3723
lfoot -25.2884 26.6372
ltoes 18.0367
549
root -3.85613 15.3606 22.8648 571.144 -17.6434 181.313
lowerback 4.10786 5.13714 -7.44888
upperback -4.98813 5.20025 -7.98394
thorax -7.55527 2.45723 -4.85997
lowerneck -8.70977 11.5961 3.00972
upperneck -5.95983 14.7815 -13.3873
head 0.947094 7.12339 -4.24751
rclavicle -4.92986e-014 4.92986e-014
rhumerus 126.12 -35.8581 216.903
rradius 9.53307
rwrist 94.4836
rhand -15.1108 10.9518
rfingers 7.12502
rthumb 11.0579 -18.7369
lclavicle -4.92986e-014 4.92986e-014
lhumerus 10.9626 41.6637 36.26
lradius 20.0898
lwrist -29.884
lhand -6.23738 26.8798
lfingers 7.12502
lthumb 19.6042 55.9114
rfemur 1.49287 5.20048 30.991
rtibia -3.49861e-014
rfoot -44.9103 -44.8524
rtoes 1.42002
lfemur -85.5999 18.5951 -48.152
ltibia 56.2726
lfoot -25.2122 26.7315
ltoes 17.7499
